<svg version="1.2" xmlns="http://www.w3.org/2000/svg" viewBox="0 0 180 80" width="180" height="80"><style></style><path  d="m17 4.7l2 2.6c1.1 1.4 2 3.2 2 4.1 0 1.1 0.9 1.6 2.8 1.6 2.9 0 5.2 1.6 5.2 3.6 0 0.7-0.8 1-2 0.7-1.9-0.5-2-0.2-1.4 3.5 0.3 2.3 0.3 4.9 0 5.9-0.7 1.7-0.8 1.7-2.1-0.1-1.3-1.8-1.5-1.8-4.1 0.3-3.3 2.6-3.8 2.3-2.4-1.3 1.4-3.9 1.3-8.9-0.2-8.4-3.6 1.2-6.5 17.7-6.9 39.2-0.2 9.1-1 12-2.8 10-0.9-1 1.2-26.8 3-36.1 0.6-3.4 2.1-8.2 3.4-10.7 2.2-4.3 2.2-5.8 0-3.7-0.6 0.5-2 1.2-3.3 1.6-1.8 0.5-2.3 0.3-2-0.9 0.2-0.8-0.6-2.2-1.7-3-2-1.5-2-1.5 0.1-1.6 1.2 0 2.7-0.7 3.5-1.6 0.9-1.1 2.2-1.4 4.1-1 2.5 0.5 2.8 0.3 2.8-2.1z"/><path fill-rule="evenodd" d="m156 17c0.6 0 1 0.8 1 1.7 0 1.5 0.2 1.4 1.5-0.3 1.4-1.8 1.4-1.8 1.5 0q0 1.8 1.5 1.2c1.8-0.7 2 0.5 0.3 2.3-1.1 1.2-1 1.3 0.6 0.7 1.3-0.4 1.7-0.2 1.3 0.8-0.3 0.8-0.1 1.7 0.6 2 0.9 0.5 0.9 0.7 0 1.2-0.7 0.3-0.9 1.2-0.6 2 0.4 1 0 1.2-1.3 0.7-1.7-0.6-1.8-0.5-0.4 1.2 1.4 1.7 1.3 1.8-0.2 1.2-1.3-0.4-1.8-0.1-1.8 1 0 0.9 0.8 2.2 1.8 2.9 1.6 1.2 1.5 1.3-0.5 1.4-1.3 0-2.3 0.2-2.3 0.4 0 0.2 0.9 7 2 15.2 1.1 8.1 1.7 15 1.5 15.3-1 1-2.4-1.5-2.7-4.9-0.3-3.2-0.6-3.5-3.3-3.5-2.8 0-3 0.3-3.3 4.2-0.2 2.9-0.8 4.3-1.8 4.3-1.7 0-1.7 0.1 0-11.3 2.3-14.4 2.4-19.1 0.3-19.5-2.6-0.5-2-2.2 0.8-2.2 1.4 0 2.5-0.5 2.5-1.1 0-0.5-0.4-0.7-1-0.4-0.5 0.3-1 0.1-1-0.5 0-0.7-0.7-1-1.5-0.6-1.8 0.7-2-0.5-0.2-2.3 1-1.1 0.8-1.2-1.2-0.6-2 0.6-2.3 0.4-1.8-0.9 0.8-2.1-2.2-2.2-4.9-0.1-1 0.8-2.2 1.5-2.6 1.5-1.3 0-0.9-2.8 0.5-3.3 0.9-0.3 0.9-0.8-0.2-2.1-2-2.4-0.9-2.9 2.5-1.1 3.8 2 5.5 1.9 4.7-0.2-0.5-1.3-0.2-1.5 1.1-1 1.4 0.6 1.6 0.3 1.1-1.3-0.5-1.5-0.3-1.8 0.9-1.4 0.9 0.3 1.6 0.1 1.6-0.6 0-0.6 0.5-0.8 1-0.5 0.6 0.3 1 0.1 1-0.4 0-0.6 0.5-1.1 1-1.1zm0.8 6.2c-1.6-0.2-2.8 0.1-2.8 0.6 0 0.5 0.8 0.9 1.8 0.8 1.2-0.1 1.6 0.5 1.4 2.2-0.1 1.5 0.2 2.2 1 2 0.7-0.3 1.3-1.6 1.3-2.9 0-1.9-0.6-2.5-2.7-2.7zm1.1 9.8c-0.5 0-0.7 0.4-0.4 1 0.3 0.5 0.8 1 1.1 1 0.2 0 0.4-0.5 0.4-1 0-0.6-0.5-1-1.1-1zm-1.2 9.3c-0.4-1.7-0.4-1.7-1.2 0-0.8 1.8 0 3.5 1.1 2.4 0.3-0.3 0.4-1.4 0.1-2.4zm-2.1 7.9c-1.2 4.5-0.7 5.8 2 5.8 2.2 0 2.5-0.3 2-2.3-0.3-1.2-0.6-3-0.6-4 0-2.5-2.7-2.1-3.4 0.5z"/><path  d="m113 49.1c0 8.3 0.2 9.1 2 9.6 2.4 0.6 2.1 2.6-0.4 3.1-3.6 0.7-4.6-1.6-4.6-11.3 0-5 0.3-9.5 0.7-9.8 1.8-1.8 2.3 0.1 2.3 8.4z"/><path fill-rule="evenodd" d="m137 43.4v3.4l4.3-0.5c4.9-0.6 7.3 1.3 8.3 6.5 0.5 2.6 0.1 3.6-2.4 6.1-2.6 2.6-3.6 3-7.8 2.7l-4.9-0.2-0.3-9.4c-0.1-5.1-0.1-9.9 0.2-10.7 1-2.5 2.6-1.3 2.6 2.1zm1.4 8.1c-2.9 4.5 0.9 9 5.6 6.5 2.3-1.2 2.8-5.8 0.8-7.8-1.9-1.9-4.6-1.4-6.4 1.3z"/><path fill-rule="evenodd" d="m13.9 41h6.1c4.7 0 6.4 0.4 8 2 2.4 2.4 2.6 6.7 0.3 9.2-1.6 1.8-1.6 2.1 0 4.7 3.7 6.3 0.3 7.2-3.7 1-3.4-5.1-6-5-6.4 0.4-0.3 3-0.7 3.7-2 3.5-1.4-0.3-1.7-1.9-2-10.6zm7.6 3c-3.3 0-3.5 0.2-3.5 3.5 0 3.3 0.2 3.5 3.5 3.5 3.9 0 5.9-2.4 4.4-5.2-0.6-1.2-2.1-1.8-4.4-1.8z"/><path fill-rule="evenodd" d="m52.8 43.8c0.2 1.2 1 2.2 1.8 2.2 0.8 0 1.4 0.7 1.4 1.5 0 0.8-0.7 1.5-1.5 1.5-1.1 0-1.5 1.1-1.5 4.3 0 2.4 0.3 4.6 0.6 5 0.9 0.8 3.4-0.3 3.4-1.6 0-2.3 3.4-4.7 6.7-4.7 2.4 0 3.3-0.4 3.3-1.6 0-1.4-0.7-1.6-4-1.1-2.2 0.3-4.2 0.2-4.5-0.3-0.8-1.3 2.2-3.1 5.6-3.2 4.7-0.2 6.9 3 6.9 10.1v5.7l-5.4-0.1c-2.9 0-6-0.6-7-1.4-0.9-0.8-1.6-0.9-1.6-0.3 0 1.4-3.3 2.4-5.4 1.6-1.2-0.4-1.6-1.9-1.6-5.5 0-2.7-0.6-5.8-1.2-6.9-1-1.5-1-2.2 0-3.2 0.6-0.6 1.2-2 1.2-3.1 0-2.5 2.4-1.6 2.8 1.1zm9.5 11.2c-2.8 1.1-2 4 1.1 4 3 0 4.9-2 3.5-3.7-1.3-1.5-1.6-1.5-4.6-0.3z"/><path fill-rule="evenodd" d="m86.5 45.7c-0.6 1.7-0.7 1.7-1.9 0-1.5-2-4.7-2.2-6.4-0.5-2 2-1.4 3.1 1.3 2.4 2.5-0.7 6.4 0.7 7.7 2.8 1.1 1.6 1 6.4-0.2 8.6-1.4 2.7-7.4 3.6-10.4 1.6-4.3-2.8-4.6-13.1-0.5-17.5 3.8-4 12.2-1.9 10.4 2.6zm-5.3 5.5c-3.4-0.3-4.7 1.1-4 4.4 1 5 7.3 4 7.3-1.2 0-2.5-0.4-2.9-3.3-3.2z"/><path  d="m105.9 43.4c2.6 2.8 1 4.8-1.8 2.2-5.7-5.2-13.4 2.1-9.7 9.3 0.9 1.6 2.4 3.2 3.5 3.6 2.3 0.7 6.7-0.9 7.4-2.7 0.3-1 0.7-1 1.8-0.1 1.8 1.8-1.4 5.1-5.7 5.9-9.4 1.7-15.4-10.8-8.5-17.7 3.9-3.8 9.7-4.1 13-0.5z"/><path  d="m34 46c1.8 0 2 0.7 2 6 0 4.5 0.4 6.2 1.5 6.6 2.8 1.1 4.5-1.6 4.5-7.2 0-4.7 0.2-5.4 2-5.4 1.8 0 2 0.7 2.2 6.5 0 3.6 0.1 7 0.2 7.7 0.1 0.7-2 1.2-5.4 1.4-7.6 0.4-9-1.1-9-9.3 0-5.6 0.2-6.3 2-6.3z"/><path  d="m118.9 46c1.9 0 2.1 0.6 2.1 4.9 0 5.8 0.7 8.1 2.5 8.1 2.8 0 4.5-3.1 4.5-8.1 0-3.7 0.4-4.9 1.5-4.9 1.1 0 1.5 1.2 1.5 4.9 0 2.7 0.3 6.2 0.6 7.7l0.6 2.9h-6.1c-3.4 0-6.6-0.6-7.3-1.3-0.6-0.6-1.4-4.1-1.6-7.7-0.4-6.1-0.3-6.5 1.7-6.5z"/></svg>