<?xml version="1.0" standalone="no"?>
<!DOCTYPE svg PUBLIC "-//W3C//DTD SVG 20010904//EN"
 "http://www.w3.org/TR/2001/REC-SVG-20010904/DTD/svg10.dtd">
<svg version="1.0" xmlns="http://www.w3.org/2000/svg"
 width="180.000000pt" height="90.000000pt" viewBox="0 0 180.000000 90.000000"
 preserveAspectRatio="xMidYMid meet">

<g transform="translate(0.000000,90.000000) scale(0.100000,-0.100000)"
fill="#000000" stroke="none">
<path d="M170 777 c0 -24 -3 -26 -28 -21 -19 4 -32 1 -41 -10 -8 -9 -23 -16
-35 -16 -21 -1 -21 -1 -1 -16 11 -8 19 -22 17 -30 -3 -12 2 -14 20 -9 13 4 27
11 33 16 22 21 22 6 0 -37 -13 -25 -28 -73 -34 -107 -18 -93 -39 -351 -30
-361 18 -20 26 9 28 100 4 215 33 380 69 392 15 5 16 -45 2 -84 -14 -36 -9
-39 24 -13 26 21 28 21 41 3 13 -18 14 -18 21 -1 3 10 3 36 0 59 -6 37 -5 40
14 35 12 -3 20 0 20 7 0 20 -23 36 -52 36 -19 0 -28 5 -28 16 0 9 -9 27 -20
41 l-20 26 0 -26z"/>
<path d="M1550 669 c0 -5 -4 -7 -10 -4 -5 3 -10 1 -10 -5 0 -7 -7 -9 -16 -6
-12 4 -14 1 -9 -14 5 -16 3 -19 -11 -13 -13 5 -16 3 -11 -10 8 -21 -9 -22 -47
-2 -34 18 -45 13 -25 -11 11 -13 11 -18 2 -21 -14 -5 -18 -33 -5 -33 4 0 16 7
26 15 27 21 57 20 49 -1 -5 -13 -2 -15 18 -9 20 6 22 5 12 -6 -18 -18 -16 -30
2 -23 8 4 15 1 15 -6 0 -6 5 -8 10 -5 6 3 10 1 10 -4 0 -6 -11 -11 -25 -11
-28 0 -34 -17 -8 -22 21 -4 20 -51 -3 -195 -17 -114 -17 -113 0 -113 10 0 16
14 18 43 3 39 5 42 33 42 27 0 30 -3 33 -35 3 -34 17 -59 27 -49 2 3 -4 72
-15 153 -11 82 -20 150 -20 152 0 2 10 4 23 4 20 1 21 2 5 14 -10 7 -18 20
-18 29 0 11 5 14 18 10 15 -6 16 -5 2 12 -14 17 -13 18 4 12 13 -5 17 -3 13 7
-3 8 -1 17 6 20 9 5 9 7 0 12 -7 3 -9 12 -6 20 4 10 0 12 -13 8 -16 -6 -17 -5
-6 7 17 18 15 30 -3 23 -10 -4 -15 0 -15 12 -1 18 -1 18 -15 0 -13 -17 -15
-18 -15 -3 0 9 -4 17 -10 17 -5 0 -10 -5 -10 -11z m45 -78 c0 -13 -6 -26 -13
-29 -8 -2 -11 5 -10 20 2 17 -2 23 -14 22 -10 -1 -18 3 -18 8 0 5 12 8 28 6
21 -2 27 -8 27 -27z m-5 -81 c0 -5 -2 -10 -4 -10 -3 0 -8 5 -11 10 -3 6 -1 10
4 10 6 0 11 -4 11 -10z m-24 -107 c-11 -11 -19 6 -11 24 8 17 8 17 12 0 3 -10
2 -21 -1 -24z m14 -50 c0 -10 3 -28 6 -40 5 -20 2 -23 -20 -23 -27 0 -32 13
-20 58 7 26 34 30 34 5z"/>
<path d="M1107 443 c-4 -3 -7 -48 -7 -98 0 -97 10 -120 46 -113 25 5 28 25 4
31 -18 5 -20 13 -20 96 0 83 -5 102 -23 84z"/>
<path d="M1344 437 c-3 -8 -3 -56 -2 -107 l3 -94 49 -2 c42 -3 52 1 78 27 25
25 29 35 24 61 -10 52 -34 71 -83 65 l-43 -5 0 34 c0 34 -16 46 -26 21z m104
-89 c20 -20 15 -66 -8 -78 -47 -25 -85 20 -56 65 18 27 45 32 64 13z"/>
<path d="M142 338 c3 -87 6 -103 20 -106 13 -2 17 5 20 35 4 54 30 55 64 4 40
-62 74 -53 37 10 -16 26 -16 29 0 47 23 25 21 68 -3 92 -16 16 -33 20 -80 20
l-61 0 3 -102z m117 54 c15 -28 -5 -52 -44 -52 -33 0 -35 2 -35 35 0 33 2 35
35 35 23 0 38 -6 44 -18z"/>
<path d="M500 423 c0 -11 -6 -25 -12 -31 -10 -10 -10 -17 0 -32 6 -11 12 -42
12 -69 0 -36 4 -51 16 -55 21 -8 54 2 54 16 0 6 7 5 16 -3 10 -8 41 -14 70
-14 l54 -1 0 57 c0 71 -22 103 -69 101 -34 -1 -64 -19 -56 -32 3 -5 23 -6 45
-3 33 5 40 3 40 -11 0 -12 -9 -16 -33 -16 -33 0 -67 -24 -67 -47 0 -13 -25
-24 -34 -16 -3 4 -6 26 -6 50 0 32 4 43 15 43 8 0 15 7 15 15 0 8 -6 15 -14
15 -8 0 -16 10 -18 22 -4 27 -28 36 -28 11z m169 -126 c14 -17 -5 -37 -35 -37
-31 0 -39 29 -11 40 30 12 33 12 46 -3z"/>
<path d="M761 419 c-41 -44 -38 -147 5 -175 30 -20 90 -11 104 16 12 22 13 70
2 86 -13 21 -52 35 -77 28 -27 -7 -33 4 -13 24 17 17 49 15 64 -5 12 -17 13
-17 19 0 18 45 -66 66 -104 26z m84 -113 c0 -52 -63 -62 -73 -12 -7 33 6 47
40 44 29 -3 33 -7 33 -32z"/>
<path d="M929 411 c-69 -69 -9 -194 85 -177 43 8 75 41 57 59 -11 9 -15 9 -18
-1 -7 -18 -51 -34 -74 -27 -11 4 -26 20 -35 36 -37 72 40 145 97 93 28 -26 44
-6 18 22 -33 36 -91 33 -130 -5z"/>
<path d="M320 327 c0 -82 14 -97 90 -93 34 2 55 7 54 14 -1 7 -2 41 -2 77 -2
58 -4 65 -22 65 -18 0 -20 -7 -20 -54 0 -56 -17 -83 -45 -72 -11 4 -15 21 -15
66 0 53 -2 60 -20 60 -18 0 -20 -7 -20 -63z"/>
<path d="M1172 325 c2 -36 10 -71 16 -77 7 -7 39 -13 73 -13 l61 0 -6 29 c-3
15 -6 50 -6 77 0 37 -4 49 -15 49 -11 0 -15 -12 -15 -49 0 -50 -17 -81 -45
-81 -18 0 -25 23 -25 81 0 43 -2 49 -21 49 -20 0 -21 -4 -17 -65z"/>
</g>
</svg>
